<svg viewBox="0 0 27.4 28.2" xmlns="http://www.w3.org/2000/svg"><path d="m14.2 28.2a14.19 14.19 0 0 1 -8.39-3.15 6.54 6.54 0 0 0 -3.31-.66.58.58 0 0 1 -.58-.48l-2-10.8a.6.6 0 0 1 .31-.64 20.4 20.4 0 0 1 3.38-1.19c3.47-1 7.79-2.27 10.86-6.56l1.53-3.93a1.44 1.44 0 0 1 1.38-.79 3.57 3.57 0 0 1 2.86 1.77 8.62 8.62 0 0 1 -.1 5.1l-1.68 3.04h5.34a2.55 2.55 0 0 1 2.49 2.49v.3a2.5 2.5 0 0 1 -.68 1.71 2.5 2.5 0 0 1 1.78 2.39v.3a2.5 2.5 0 0 1 -2.25 2.48 2.46 2.46 0 0 1 .55 1.52v.3a2.49 2.49 0 0 1 -2 2.45 2.63 2.63 0 0 1 .44 1.45v.3a2.5 2.5 0 0 1 -2.49 2.49h-3.56l-3.56.1zm-11.2-4.98a6.44 6.44 0 0 1 3.63 1 12.77 12.77 0 0 0 7.85 2.78h1.63a2.52 2.52 0 0 1 -.4-1.36v-.3a2.48 2.48 0 0 1 1.29-2.22 2.49 2.49 0 0 1 -.69-1.72v-.3a2.47 2.47 0 0 1 .83-1.85 2.5 2.5 0 0 1 -1.23-2.15v-.3a2.49 2.49 0 0 1 1-2 2.48 2.48 0 0 1 -1.13-2.08v-.3a2.49 2.49 0 0 1 1-2l2.2-4a7.4 7.4 0 0 0 .06-4.12 2.42 2.42 0 0 0 -1.79-1c-.11 0-.27 0-.32.1l-1.48 4a.33.33 0 0 1 -.07.13c-3.21 4.47-7.96 5.88-11.38 6.89a23.18 23.18 0 0 0 -2.78.92zm18.75.78h-3.55a1.31 1.31 0 0 0 -1.31 1.31v.3a1.31 1.31 0 0 0 1.21 1.3l3.38-.09a.69.69 0 0 1 .32.08 1.3 1.3 0 0 0 1.11-1.29v-.3a1.38 1.38 0 0 0 -.45-1 1.11 1.11 0 0 0 -.71-.31zm-2.95-4.21a1.31 1.31 0 0 0 -1.31 1.31v.3a1.31 1.31 0 0 0 1.31 1.31h4.4a1.31 1.31 0 0 0 1.31-1.31v-.3a1.39 1.39 0 0 0 -1.31-1.31zm-.4-4.3a1.31 1.31 0 0 0 -1.31 1.31v.3a1.31 1.31 0 0 0 1.31 1.31h6.5a1.31 1.31 0 0 0 1.31-1.31v-.3a1.31 1.31 0 0 0 -1.31-1.31zm-.1-4.4a1.31 1.31 0 0 0 -1.3 1.31v.3a1.31 1.31 0 0 0 1.3 1.3h5.5a1.31 1.31 0 0 0 1.31-1.31v-.3a1.39 1.39 0 0 0 -1.31-1.31z" fill="#2484c6"/></svg>