<svg viewBox="0 0 27.4 27.4" xmlns="http://www.w3.org/2000/svg"><path d="m13.7 27.38a13.68 13.68 0 1 1 13.68-13.68 13.7 13.7 0 0 1 -13.68 13.68zm-8.5-4.5a12.43 12.43 0 0 0 6.69 3.21 16.22 16.22 0 0 1 -3.69-4.81 10.69 10.69 0 0 0 -3 1.6zm14.18-1.53a16.11 16.11 0 0 1 -3.63 4.7 12.49 12.49 0 0 0 6.45-3.17 10.83 10.83 0 0 0 -2.82-1.53zm-5.1-1v5.38a14.78 14.78 0 0 0 4-4.78 16.33 16.33 0 0 0 -4-.56zm-5 .54a14.73 14.73 0 0 0 3.8 4.68v-5.18a17.16 17.16 0 0 0 -3.76.54zm10.55-.63a11.91 11.91 0 0 1 3.17 1.79 12.47 12.47 0 0 0 3.19-7.77h-5a16.78 16.78 0 0 1 -1.32 6.02zm-18.68-6a12.47 12.47 0 0 0 3.19 7.77 12 12 0 0 1 3.34-1.82 17 17 0 0 1 -1.29-6zm13.09 5a17.86 17.86 0 0 1 4.48.7 15.41 15.41 0 0 0 1.28-5.68h-5.72zm-6.69-5a15.7 15.7 0 0 0 1.24 5.59 18.42 18.42 0 0 1 4.29-.64v-5zm13.58-1.16h5a12.52 12.52 0 0 0 -3.13-7.76 11.59 11.59 0 0 1 -3.18 1.77 16.89 16.89 0 0 1 1.35 6.01zm-6.89 0h5.76a15.81 15.81 0 0 0 -1.27-5.64 18.24 18.24 0 0 1 -4.46.69zm-6.69 0h5.53v-4.93a17.82 17.82 0 0 1 -4.28-.64 15.55 15.55 0 0 0 -1.21 5.59zm-6.4 0h5.28a16.78 16.78 0 0 1 1.3-5.94 11.83 11.83 0 0 1 -3.35-1.82 12.52 12.52 0 0 0 -3.19 7.78zm8.19-6.63a17 17 0 0 0 3.78.53v-5.18a15 15 0 0 0 -3.78 4.65zm4.94-4.74v5.27a16.65 16.65 0 0 0 4-.59 14.58 14.58 0 0 0 -4-4.68zm-9.08 2.79a10.81 10.81 0 0 0 3 1.6 16.15 16.15 0 0 1 3.74-4.82 12.49 12.49 0 0 0 -6.74 3.22zm10.42-3.19a15.66 15.66 0 0 1 3.73 4.73 10.45 10.45 0 0 0 2.85-1.54 12.4 12.4 0 0 0 -6.58-3.19z" fill="#2484c6"/></svg>