<svg viewBox="0 0 56.9 27.2" xmlns="http://www.w3.org/2000/svg"><path d="m28.4 27.19a.69.69 0 0 1 -.24-.05c-7.37-3.2-11.95-9.24-11.95-15.74v-10.1a.59.59 0 0 1 1-.38 6.87 6.87 0 0 0 5.09 1.89c2.54 0 4.84-1 5.46-2.45a.61.61 0 0 1 1.08 0c.62 1.42 2.92 2.45 5.46 2.45 2.22 0 4.14-.72 5-1.87a.6.6 0 0 1 .7-.2.59.59 0 0 1 .4.56v10.1c.3 6.46-4.21 12.51-11.76 15.74a.59.59 0 0 1 -.24.05zm-11-24.58v8.79c0 6 4.21 11.52 11 14.55 7-3.06 11.08-8.6 10.81-14.52v-8.78a8.6 8.6 0 0 1 -4.91 1.35 7.87 7.87 0 0 1 -6-2.28 7.87 7.87 0 0 1 -6 2.28 9 9 0 0 1 -4.91-1.39zm33.3 17.88a.59.59 0 0 1 -.23 0c-3.62-1.53-6-4.61-6-7.84v-4.85a.59.59 0 0 1 1-.38 3 3 0 0 0 2.25.79 2.56 2.56 0 0 0 2.35-1 .61.61 0 0 1 1.1 0 2.56 2.56 0 0 0 2.35 1 3 3 0 0 0 2.25-.79.59.59 0 0 1 1 .38v4.8c0 3.23-2.34 6.31-6 7.84a.59.59 0 0 1 -.07.05zm-5.01-11.49v3.6c0 2.69 2 5.28 5 6.65 3-1.37 5-4 5-6.65v-3.6a5 5 0 0 1 -2.11.43 4.3 4.3 0 0 1 -2.9-1 4.3 4.3 0 0 1 -2.9 1 5 5 0 0 1 -2.09-.43zm-39.49 11.49a.59.59 0 0 1 -.23 0c-3.62-1.53-6-4.61-6-7.84v-4.85a.61.61 0 0 1 .43-.56.6.6 0 0 1 .65.18 3 3 0 0 0 2.25.79 2.56 2.56 0 0 0 2.35-1 .57.57 0 0 1 .55-.38.57.57 0 0 1 .55.38 2.56 2.56 0 0 0 2.35 1 3 3 0 0 0 2.25-.79.6.6 0 0 1 .65-.18.61.61 0 0 1 .39.56v4.8c0 3.23-2.34 6.31-6 7.84a.59.59 0 0 1 -.19.05zm-5.01-11.49v3.6c0 2.69 2 5.28 5 6.65 3.05-1.37 5-4 5-6.65v-3.6a5 5 0 0 1 -2.11.43 4.3 4.3 0 0 1 -2.9-1 4.3 4.3 0 0 1 -2.9 1 5 5 0 0 1 -2.09-.43zm26.91 9.69a.61.61 0 0 1 -.45-.2l-4.5-5.2a.6.6 0 0 1 .9-.78l4 4.61 6-9a.59.59 0 0 1 1 .66l-6.4 9.69a.57.57 0 0 1 -.45.27z" fill="#2484c6"/></svg>