<svg viewBox="0 0 40 40" xmlns="http://www.w3.org/2000/svg"><g fill="#2484c6"><path d="m33.6 35.9c-.1-1-2.2-2.2-5.8-3.5a1 1 0 0 1 -.3-.1c-1.2-.4-2.3-.9-3.5-1.3-.3-.1-.4-1-.4-2.4a3.49 3.49 0 0 1 .6-1.7 6.3 6.3 0 0 0 1-2.9 1.75 1.75 0 0 1 .4-1.2 17.72 17.72 0 0 0 .6-1.7 2.43 2.43 0 0 0 0-1.2 1.7 1.7 0 0 1 -.1-.7v-.4a9.63 9.63 0 0 1 .3-2 6 6 0 0 0 -1.4-3.6 6.33 6.33 0 0 0 -4.9-1.9 6.33 6.33 0 0 0 -4.9 1.9 5.24 5.24 0 0 0 -1.4 3.6 7.66 7.66 0 0 0 .3 2v.4c0 .3-.1.4-.1.7a2.43 2.43 0 0 0 0 1.2 3.63 3.63 0 0 0 .7 1.7 3.37 3.37 0 0 1 .4 1.2 6.3 6.3 0 0 0 1 2.9 2.35 2.35 0 0 1 .6 1.7v.4a3.08 3.08 0 0 1 -.3 1.9 8.18 8.18 0 0 1 -1.9.9l-2 .7c-3.7 1.3-5.6 2.6-5.9 3.5a16.22 16.22 0 0 0 -.1 2.3s3.2.6 13.7.6 13.8-.6 13.8-.6z"/><path d="m19.9 9.8 3.9-3.8-1-1.1-2.2 2.1v-5.8h-1.2v5.8l-2.2-2.1-1.2 1.1z"/><path d="m8.7 11.1.7 2.8-5-2.8-.6 1.2 4.9 2.9-2.7.8.2 1.3 5.2-1.3-1.3-5.3z"/><path d="m35.5 11.1-5.1 2.9.9-2.9-1.4-.4-1.5 5.3 5.4 1.3.2-1.3-2.7-.8 4.9-2.9z"/></g></svg>