<svg viewBox="0 0 40 40" xmlns="http://www.w3.org/2000/svg"><g fill="#2484c6"><path d="M20.1 9.5h-.3l-3.6.9c-1.5.4-3 .8-4.6 1.1v9.3a8.42 8.42 0 0 0 1.8 5.2 16.78 16.78 0 0 0 6.4 4.6 18.56 18.56 0 0 0 5.9-4 7.31 7.31 0 0 0 2.6-5.9v-9.2c-1.5-.4-3-.7-4.5-1.1-1.2-.3-2.4-.6-3.7-.9zm5.2 6.2a.61.61 0 0 1 .1 1l-2.2 2.8c-1.2 1.5-2.4 3.1-3.6 4.6-.7.9-1.2.9-1.9 0-1.1-1.4-2.1-2.9-3.2-4.3-.4-.5-.4-1 0-1.3a.94.94 0 0 1 1.3.1l2.3 2c.1.1.3.2.5.4a1.38 1.38 0 0 1 .3-.4l4.9-4.9a2.09 2.09 0 0 1 .6-.4.7.7 0 0 1 .9.4z"/><path d="M33.8 20.6V9.8A3.47 3.47 0 0 0 31 6.2c-1.7-.4-3.5-.9-5.2-1.3l-.8-.2c-1.3-.3-2.6-.7-3.9-1a4.48 4.48 0 0 0-2.3 0c-1.4.4-2.9.7-4.2 1-1.6.4-3.7.9-5.6 1.4a3.5 3.5 0 0 0-2.8 3.7v11.1a13.26 13.26 0 0 0 3.1 8.7 25.06 25.06 0 0 0 9.2 6.6 3.9 3.9 0 0 0 3 0 25.25 25.25 0 0 0 8.3-5.6 13.26 13.26 0 0 0 4-10zm-6.3 7.9a23.08 23.08 0 0 1-7.5 5.1 22.11 22.11 0 0 1-8.3-5.9 10.13 10.13 0 0 1-2.4-6.6c.1-3.7 0-7.4 0-11v-1c1.9-.5 3.9-1 5.7-1.4l4.8-1.2h.2c1.6.4 3.2.8 4.7 1.2 1.9.5 3.8 1 5.8 1.4V21a9.58 9.58 0 0 1-3 7.5z"/></g></svg>