<svg id="Layer_1" data-name="Layer 1" xmlns="http://www.w3.org/2000/svg" viewBox="0 0 206.39 35.15"><defs><style>.cls-1{fill:#fff;}.cls-2{fill:#e74935;}</style></defs><title>Artboard 1</title><path class="cls-1" d="M202,2.88V6.31h.6V5h.48a1.47,1.47,0,0,1,.67.11.84.84,0,0,1,.32.78v.45h.57l0,0a.56.56,0,0,1,0-.18c0-.09,0-.18,0-.25V5.58a.94.94,0,0,0-.19-.53.84.84,0,0,0-.59-.34,1.3,1.3,0,0,0,.5-.17.75.75,0,0,0,.33-.68.85.85,0,0,0-.53-.87,2.62,2.62,0,0,0-.94-.12Zm2.08,1a.53.53,0,0,1-.35.54,1.64,1.64,0,0,1-.58.08h-.55V3.29h.52a1.57,1.57,0,0,1,.73.13.52.52,0,0,1,.23.5m2.31.68a3,3,0,0,0-.92-2.2,3.13,3.13,0,0,0-4.41,0,3,3,0,0,0-.92,2.2,3,3,0,0,0,.91,2.22,3.12,3.12,0,0,0,4.42,0,3,3,0,0,0,.92-2.22m-3.13-2.69a2.59,2.59,0,0,1,1.9.79A2.6,2.6,0,0,1,206,4.6a2.62,2.62,0,0,1-.78,1.91,2.68,2.68,0,0,1-3.8,0,2.63,2.63,0,0,1-.78-1.91,2.6,2.6,0,0,1,.78-1.9,2.58,2.58,0,0,1,1.9-.79"/><path class="cls-2" d="M20.4,10.44h0a5.07,5.07,0,0,1,4.26,3.89,3,3,0,0,1-2.84,3.89,4.93,4.93,0,0,1-4.57-4.14,3,3,0,0,1,3.15-3.64m8.15,12.85h0c.25,2.78-4.14,4-5.87,4.2S15,27.3,14.85,24.21s5.37-4.14,7.23-4.2,6.18.68,6.48,3.27M10.4,21.18h0c.74,1.11,1.67,1.73,3.27.68s1.3-2.1.56-3.21A9.61,9.61,0,0,1,12.5,14.2a7.33,7.33,0,0,1,.62-4.14c.43-.86.49-1.73-1.17-2.47S9.6,7.47,9.1,8.34a10.49,10.49,0,0,0-1.17,6.11,13.55,13.55,0,0,0,2.47,6.73M13.24,4.57h0a11.12,11.12,0,0,1,5.31-.68,14.66,14.66,0,0,1,5.25,2c.86.56,1.48,1,1.3,2s-1,.74-1.85.19a9.74,9.74,0,0,0-3.77-1.3,6.72,6.72,0,0,0-3.64.62c-.86.43-1.61.74-2.9-.68s-.56-1.73.31-2.16m6.55-3.52h0c-.8-.25-1.48-.49-1.3.31s.93,1.17,1.79,1.42A21.31,21.31,0,0,1,24,4.63a22.75,22.75,0,0,1,3.27,2.66C28,8,28.62,8.4,28.8,8s-.25-.93-.86-1.61a31.91,31.91,0,0,0-3.83-3.21,28.26,28.26,0,0,0-4.32-2.16M31.64,11.3h0c-.43-.74-.8-1.42-1.36-1.42s-.31.68.19,1.54c.31.62.62,1.23.93,1.91s.49,1.36.68,2,.31,1.36.43,2,.12,1.36.12,2a2.57,2.57,0,0,0,.93,2.35c.8.56.86-.12.86-1s-.12-1.67-.19-2.47a17.56,17.56,0,0,0-.56-2.47c-.25-.8-.49-1.54-.8-2.35a17.93,17.93,0,0,0-1.24-2.16m1.67,15.25h0A2.46,2.46,0,0,0,33.06,24c-.68-1-1.17-.56-1.54.25a10.53,10.53,0,0,1-2.35,3.33,11.89,11.89,0,0,1-3.64,2.35c-1,.37-1.73.8-1.36,2.72s1.11,1.67,2,1.3a13.76,13.76,0,0,0,4.38-3.09,12.88,12.88,0,0,0,2.72-4.26M19.17,35.14h0c1.11.06,2,0,2.35-2s-.56-2.28-1.73-2.41a15.57,15.57,0,0,1-5.19-1.48,19.43,19.43,0,0,1-4.75-3.34c-.93-.93-1.85-1.54-3.4.06s-.93,2.47.06,3.4a22.62,22.62,0,0,0,6.05,4.2,23,23,0,0,0,6.61,1.61M1.57,21.92h0c.49,1.17,1.11,2.1,3.09,1.24S6.45,21.24,6,20.07A22.54,22.54,0,0,1,5,17.42a13.15,13.15,0,0,1-.43-2.72,12.1,12.1,0,0,1,.06-2.59,14.32,14.32,0,0,1,.49-2.35c.31-1,.18-1.85-1.48-2.16A2.11,2.11,0,0,0,1,9a13,13,0,0,0-.74,3A14.57,14.57,0,0,0,0,15.19a21.23,21.23,0,0,0,.43,3.4,15,15,0,0,0,1.11,3.33M4.66,3.4c-.74.62-1,1.36.31,2a2.34,2.34,0,0,0,3-.31,11.17,11.17,0,0,1,3.52-2.28,12.53,12.53,0,0,1,4-.8c.86,0,1.54-.12.86-1A2.41,2.41,0,0,0,14,0,16.15,16.15,0,0,0,9.1.8,16.13,16.13,0,0,0,4.66,3.4"/><path class="cls-1" d="M193.84,17c-.24-.24-.61-.3-1.17.3s-.49.95-.24,1.25l3.25,3.74a5.1,5.1,0,0,0,.8.83,1.26,1.26,0,0,0,.8.24H198a.57.57,0,0,0,.61-.42.73.73,0,0,0-.24-.77ZM49.55,23.49h-.18c-2.39,0-4.11-.48-5.09-1.55S42.74,19,42.8,16.3v-.71c0-2.73.49-4.64,1.47-5.65S47,8.39,49.37,8.39h.24A15,15,0,0,1,53.91,9a1.92,1.92,0,0,1,.8.36.88.88,0,0,1,.25.65v.48a.59.59,0,0,1-.55.65h-.12a14.54,14.54,0,0,1-1.53-.42,11.46,11.46,0,0,0-3.19-.42h-.12c-1.84,0-3,.36-3.56,1.07S45,13.5,45,15.64v.65c0,2.08.31,3.5.92,4.22s1.78,1.07,3.5,1.07h.12a11.77,11.77,0,0,0,3.19-.42,11.41,11.41,0,0,1,1.53-.42.6.6,0,0,1,.68.53v.6a.88.88,0,0,1-.25.65,1.94,1.94,0,0,1-.8.36,16,16,0,0,1-4.36.59m9.82-2.73A4,4,0,0,0,60.65,23a4.6,4.6,0,0,0,2.64.65h.12c.31,0,.61-.06.86-.89s.06-1.07-.61-1.07h-.31A2.1,2.1,0,0,1,62,21.35a2.59,2.59,0,0,1-.67-1.43L58.94,9.7a2.74,2.74,0,0,0-.37-.89.94.94,0,0,0-.68-.24h-.67c-.68,0-.86.42-.68,1.19ZM68.51,9.7h0a1.56,1.56,0,0,1,.43-.83,1.26,1.26,0,0,1,.8-.24h.49c.67,0,1,.42.74,1.25l-4.6,18.89a1.57,1.57,0,0,1-.43.83,1.26,1.26,0,0,1-.8.24h-.49c-.67,0-1-.42-.74-1.25ZM77,21.41h0a11.57,11.57,0,0,0,2.88.18h.61c1.84,0,3.07-.36,3.62-1.07s.86-2.2.86-4.46v-.24c0-2.26-.31-3.68-.86-4.4s-1.78-1-3.62-1h-.61a17.87,17.87,0,0,0-2.52.18c-.61.12-.8-.06-.8-.83s.06-1,.68-1.07a18.92,18.92,0,0,1,2.58-.18h.74c2.39,0,4.11.53,5.09,1.55S87.1,13,87.1,15.76v.47q0,4.19-1.47,5.7c-1,1-2.7,1.55-5.09,1.55H79.8c-2.45,0-4.11-.24-5-.77A2.88,2.88,0,0,1,73.35,20V4.23c0-.53.25-.77.74-.77h.67c.49,0,.74.24.74.77V19.62a2,2,0,0,0,.31,1.19,2.42,2.42,0,0,0,1.17.59M93,15.29h7.18c.37,0,.55-.18.55-.48,0-1.84-.31-3-.86-3.57s-1.72-.83-3.56-.83h-.43c-1.66,0-2.76.3-3.31.95-1.29,1.31-1.29,8.08.06,9.39.61.65,1.78.95,3.56.95h.31a12.8,12.8,0,0,0,3.37-.42l1.72-.42c.49,0,.67.24.67.71v.36a.87.87,0,0,1-.25.65,2.07,2.07,0,0,1-.74.36,21.54,21.54,0,0,1-4.79.65h-.37c-2.45,0-4.23-.54-5.15-1.55s-1.47-2.91-1.47-5.64v-.59q0-4.19,1.47-5.7c1-1,2.64-1.54,5.09-1.54h.37c2.39,0,4,.42,5,1.31S103,12.26,103,14.39v.77a1.72,1.72,0,0,1-.49,1.43A2.31,2.31,0,0,1,101,17H93c-.61-.12-.61-1.78,0-1.72m14,8.08h-.67a.7.7,0,0,1-.74-.71V11.54a3.18,3.18,0,0,1,.43-2,2.46,2.46,0,0,1,1.6-.83,14.57,14.57,0,0,1,2.76-.3h.12a14.48,14.48,0,0,1,3.19.3q.92.18.92.89v.42a.64.64,0,0,1-.74.71,7.66,7.66,0,0,1-1.1-.24,12.53,12.53,0,0,0-2.09-.24h-.06a9.64,9.64,0,0,0-1.84.18,1.29,1.29,0,0,0-.8.42,2.12,2.12,0,0,0-.18.89V22.53a.72.72,0,0,1-.25.53.65.65,0,0,1-.55.3m30.43,0a.67.67,0,0,0,.55-.24.74.74,0,0,0,.24-.53V15.52a19.52,19.52,0,0,0-.18-2.67,5.44,5.44,0,0,0-.68-1.9,4.23,4.23,0,0,0-1.23-1.31,7.91,7.91,0,0,0-2-.77,14.7,14.7,0,0,0-2.76-.42c-1-.06-2.27-.12-3.8-.12a56.62,56.62,0,0,0-8.4.47,2.79,2.79,0,0,0-1.9.83,3,3,0,0,0-.49,1.9V22.59a.7.7,0,0,0,.74.71h.68a.68.68,0,0,0,.55-.24.75.75,0,0,0,.25-.53V12.14a1.64,1.64,0,0,1,.25-1.07,1.89,1.89,0,0,1,1-.48,63.05,63.05,0,0,1,12.51-.18,4.61,4.61,0,0,1,2.09.89,2.92,2.92,0,0,1,1,1.66,15.56,15.56,0,0,1,.25,2.91v6.71a.71.71,0,0,0,.24.53.93.93,0,0,0,.55.24Zm-8.83-11.59h0V22.59a.59.59,0,0,1-.55.71h-.86a.68.68,0,0,1-.55-.24.82.82,0,0,1-.18-.53V11.78q0-.53,1.11-.53c.74,0,1,.18,1,.53m15.83,3.45h7.18c.37,0,.55-.18.55-.47,0-1.84-.31-3-.86-3.57s-1.72-.83-3.56-.83h-.43c-1.66,0-2.76.3-3.31,1-1.29,1.31-1.29,8.08.06,9.39.61.65,1.78,1,3.56,1H148a12.8,12.8,0,0,0,3.37-.42l1.72-.42c.49,0,.68.24.68.71v.36a.88.88,0,0,1-.24.65,2.12,2.12,0,0,1-.74.36,21.6,21.6,0,0,1-4.79.65h-.37c-2.45,0-4.23-.53-5.21-1.55s-1.47-2.91-1.47-5.64v-.59q0-4.19,1.47-5.7c1-1,2.64-1.55,5.09-1.55h.37c2.39,0,4,.42,5,1.31s1.47,2.38,1.47,4.52v.77a1.72,1.72,0,0,1-.49,1.43,2.31,2.31,0,0,1-1.53.42h-7.85c-.55,0-.55-1.66,0-1.72m18.65,8.26H163a4.78,4.78,0,0,1-3.86-1.43c-.8-1-1.17-2.67-1.17-5.17V11.07a.46.46,0,0,0-.37-.53h-.92a.6.6,0,0,1-.74-.53V9.4c0-.53.24-.77.74-.77h.86c.37,0,.55-.18.55-.48V6c0-.53.24-.77.74-.77h.61c.49,0,.74.24.74.77V8.16c0,.3.18.48.55.48h4.48c.49,0,.74.24.74.77v.42a.59.59,0,0,1-.55.71h-4.66a.48.48,0,0,0-.55.36v6.06a7,7,0,0,0,.61,3.62,2.56,2.56,0,0,0,2.21,1h.12a6.09,6.09,0,0,0,1.78-.24,4.65,4.65,0,0,1,.86-.24c.43,0,.61.24.61.71v.42c0,.48-.37.83-1,1a7.09,7.09,0,0,1-2.21.3m6.63-.12h-.61a.7.7,0,0,1-.74-.71V11.54a3.19,3.19,0,0,1,.43-2,2.45,2.45,0,0,1,1.6-.83,14.56,14.56,0,0,1,2.76-.3h.12a14.48,14.48,0,0,1,3.19.3q.92.18.92.89v.42a.64.64,0,0,1-.74.71,7.63,7.63,0,0,1-1.1-.24,12.55,12.55,0,0,0-2.09-.24h-.06a9.64,9.64,0,0,0-1.84.18,1.48,1.48,0,0,0-.8.42,2.1,2.1,0,0,0-.18.89V22.53a.72.72,0,0,1-.25.53.86.86,0,0,1-.61.3m12.15-.77h0a.59.59,0,0,1-.55.71h-.8a.6.6,0,0,1-.74-.54V9.4c0-.53.25-.77.74-.77h.61c.49,0,.74.24.74.77Zm0-16.46h0c0,.53-.24.77-.74.77h-.61c-.49,0-.74-.24-.74-.77V4.23c0-.53.25-.77.74-.77h.61c.49,0,.74.24.74.77Zm3.5,17.23h-.68a.54.54,0,0,1-.55-.36.86.86,0,0,1,.24-.77l5.15-5.82a.74.74,0,0,0,0-1.07l-4.79-5.47a.83.83,0,0,1-.25-.83.59.59,0,0,1,.61-.36h.67a1.21,1.21,0,0,1,.74.24,2.84,2.84,0,0,1,.8.89l3.62,4.1c.18.24.31.3.43.3s.25-.12.37-.36l3.62-4.1a3.84,3.84,0,0,1,.8-.89,1.09,1.09,0,0,1,.74-.24h.67a.55.55,0,0,1,.61.36.73.73,0,0,1-.24.77L187,22.24a2.34,2.34,0,0,1-1.66,1.13"/></svg>