<svg viewBox="0 0 40 40" xmlns="http://www.w3.org/2000/svg"><path d="M36.1 23.4a3.92 3.92 0 0 0-3.9 3.6h-6.8a5.24 5.24 0 0 0-1.6-3.6l5.8-4.4a3.57 3.57 0 0 0 2.3.8 3.9 3.9 0 1 0-3.9-3.9 3.84 3.84 0 0 0 .9 2.5l-5.8 4.5a5.26 5.26 0 0 0-2.8-1V15a3.87 3.87 0 1 0-4.4-3.8 3.8 3.8 0 0 0 3.4 3.8v6.7a6.72 6.72 0 0 0-2.8 1l-5.8-4.6a3.78 3.78 0 0 0 .8-2.3 3.9 3.9 0 0 0-3.9-3.9 3.91 3.91 0 0 0 .3 7.8 3.41 3.41 0 0 0 2.4-.9l5.8 4.5a5.71 5.71 0 0 0-1.6 3.6H7.7a3.88 3.88 0 0 0-3.8-3.4 3.9 3.9 0 0 0 0 7.8 3.8 3.8 0 0 0 3.8-3.4h6.8a5.44 5.44 0 0 0 10.8 0h6.9a3.88 3.88 0 0 0 7.7-.7 3.74 3.74 0 0 0-3.8-3.8" fill="#2484c6"/></svg>