<svg viewBox="0 0 27 26.6" xmlns="http://www.w3.org/2000/svg"><clipPath id="a"><path d="M0 0h27v26.6H0z"/></clipPath><clipPath id="b"><path d="M0 0h27v26.6H0z"/></clipPath><clipPath id="c"><path d="M-9-7h45v34.6H-9z"/></clipPath><switch><g clip-path="url(#a)"><g clip-path="url(#b)" opacity=".83"><path clip-path="url(#c)" d="M16.8 15.9H10v-1.1c.1-.9.4-1.8 1.1-2.4l2.7-2.5c.6-.5.9-.9.9-1.2v-.3c0-.4-.3-.8-.7-1-.2-.1-.5-.2-.8-.2-.9 0-1.9 0-3 .1V5.7c1.1-.1 2.1-.2 3-.2.5 0 1.1.1 1.6.3 1.2.5 1.8 1.3 1.9 2.5v.3c-.1.7-.6 1.5-1.5 2.4l-2.3 2c-.4.3-.7.7-.9 1.1h4.8zM27 1.6S22.4 0 13.7 0 0 1.6 0 1.6l2.6 16 10.8 9 11.1-9.1z" fill="#fff"/></g></g></switch></svg>