<svg viewBox="0 0 27 26.6" xmlns="http://www.w3.org/2000/svg"><clipPath id="a"><path d="M0 0h27v26.6H0z"/></clipPath><clipPath id="b"><path d="M0 0h27v26.6H0z"/></clipPath><clipPath id="c"><path d="M-9-7h45v34.6H-9z"/></clipPath><switch><g clip-path="url(#a)"><g clip-path="url(#b)" opacity=".83"><path clip-path="url(#c)" d="M11.9 12.2h2.3v-4zm5.1 1.4h-1v2.3h-1.8v-2.3H9.8v-1c0-.3.1-.5.2-.7l3.9-6c.2-.3.5-.5.9-.5H16V12h1zm10-12S22.4 0 13.7 0 0 1.6 0 1.6l2.6 16 10.8 9 11.1-9.1z" fill="#fff"/></g></g></switch></svg>