<svg viewBox="0 0 27 26.6" xmlns="http://www.w3.org/2000/svg"><clipPath id="a"><path d="M0 0h27v26.6H0z"/></clipPath><clipPath id="b"><path d="M0 0h27v26.6H0z"/></clipPath><clipPath id="c"><path d="M-9-7h45v34.6H-9z"/></clipPath><switch><g clip-path="url(#a)"><g clip-path="url(#b)" opacity=".83"><path clip-path="url(#c)" d="M14.9 12.5c0-1.2-.4-1.7-1.1-1.7-.6 0-1.2.2-2 .5v1.2c.1 1.2.5 1.8 1.2 1.8h.7c.9-.1 1.2-.7 1.2-1.8m1.9 0c0 2.3-1 3.4-3 3.4h-.7c-2.1 0-3.1-1.2-3.1-3.4V8.8c0-2.2 1.1-3.3 3.1-3.3.9 0 1.9.2 2.9.3v1.5c-1.1-.1-2.1-.2-3-.2-.8 0-1.2.5-1.2 1.6v.7c.6-.3 1.3-.4 2-.4 2 .1 3 1.2 3 3.5zM27 1.6S22.4 0 13.7 0 0 1.6 0 1.6l2.6 16 10.8 9 11.1-9.1z" fill="#fff"/></g></g></switch></svg>