<svg viewBox="0 0 27 26.6" xmlns="http://www.w3.org/2000/svg"><clipPath id="a"><path d="M0 0h27v26.6H0z"/></clipPath><clipPath id="b"><path d="M0 0h27v26.6H0z"/></clipPath><clipPath id="c"><path d="M-9-7h45v34.6H-9z"/></clipPath><switch><g clip-path="url(#a)"><g clip-path="url(#b)" opacity=".83"><path clip-path="url(#c)" d="M14.7 8.8v-.9c0-.5-.4-.7-1.2-.7h-.2c-.8 0-1.2.2-1.2.7v.9c0 .7.4 1 1.2 1h.2c.8 0 1.2-.3 1.2-1m.2 4.4v-1.1c0-.6-.5-.9-1.4-.9h-.2c-.9 0-1.4.3-1.4 1v1c0 .7.5 1 1.4 1h.2c.9.1 1.4-.3 1.4-1m1.9-.1c0 1.8-1.1 2.8-3.3 2.8h-.2c-2.2 0-3.3-.9-3.3-2.8v-.7c0-1 .4-1.6 1.2-1.9v-.2c-.7-.2-1-.8-1-1.9v-.2c0-1.8 1-2.7 3.1-2.7h.2c2.1 0 3.2.9 3.2 2.7v.4c0 1-.3 1.6-1 1.8v.2c.8.3 1.2.9 1.2 1.9v.6zM27 1.6S22.4 0 13.7 0 0 1.6 0 1.6l2.6 16 10.8 9 11.1-9.1z" fill="#fff"/></g></g></switch></svg>