<svg viewBox="0 0 27 26.6" xmlns="http://www.w3.org/2000/svg"><clipPath id="a"><path d="M0 0h27v26.6H0z"/></clipPath><clipPath id="b"><path d="M0 0h27v26.6H0z"/></clipPath><clipPath id="c"><path d="M-9-7h45v34.6H-9z"/></clipPath><switch><g clip-path="url(#a)"><g clip-path="url(#b)" opacity=".83"><path clip-path="url(#c)" d="M15.3 10.7c1.1.1 1.6 1.1 1.5 2.8-.1.7-.3 1.3-.7 1.6-.4.5-1.5.7-3.2.7l-2.9-.3V14l3 .1c.8 0 1.3-.1 1.5-.2.4-.3.5-.8.3-1.8-.1-.4-.5-.7-1-.7h-2.6V9.9h2.6c.4 0 .7-.1.8-.4.2-1 .1-1.7-.4-2-.2-.1-.6-.2-1.2-.2l-2.7.1V5.8l2.7-.2c1.6 0 2.6.2 3 .7.4.4.6 1 .6 1.8 0 1.5-.4 2.4-1.3 2.6M27 1.6S22.4 0 13.7 0 0 1.6 0 1.6l2.6 16 10.8 9 11.1-9.1z" fill="#fff"/></g></g></switch></svg>