<svg viewBox="0 0 27 26.6" xmlns="http://www.w3.org/2000/svg"><clipPath id="a"><path d="M0 0h27v26.6H0z"/></clipPath><clipPath id="b"><path d="M0 0h27v26.6H0z"/></clipPath><clipPath id="c"><path d="M-9-7h45v34.6H-9z"/></clipPath><switch><g clip-path="url(#a)"><g clip-path="url(#b)" opacity=".83"><path clip-path="url(#c)" d="M16.8 12.8c0 2.1-1.1 3.1-3.4 3.1l-3.4-.3V14l3.5.2c1 0 1.4-.5 1.4-1.4v-.5c0-.9-.5-1.3-1.4-1.3l-2.8.2c-.5 0-.7-.2-.7-.5V5.5h6.5v1.6H12v2.2l1.5-.1c2.2 0 3.4 1 3.4 3v.6zM27 1.6S22.4 0 13.7 0 0 1.6 0 1.6l2.6 16 10.8 9 11.1-9.1z" fill="#fff"/></g></g></switch></svg>